<svg xmlns="http://www.w3.org/2000/svg" width="180" height="37" viewBox="0 0 180 37" fill="none"><g clip-path="url(#clip0_2160_1467)"><path d="M147.971 36.0108H152.974V0.869823C152.902 0.893148 152.814 0.795184 152.789 0.795184H148.043L148.371 0.643573C154.226 0.90481 160.36 0.307697 166.183 0.643573C170.803 0.909475 175.427 3.14632 175.928 8.26376C176.441 13.4885 173.66 16.8473 168.599 17.652C168.213 17.7126 167.879 17.5073 167.689 17.9948L169.692 18.4963C174.863 20.255 175.018 25.573 175.196 30.2496C175.26 31.9337 174.69 35.7356 177.076 36.0015C178.099 36.1158 178.984 35.5653 179.975 35.4907C180.12 35.6237 179.497 35.8802 179.406 35.9175C177.372 36.7829 173.66 36.7759 171.757 35.577C166.349 32.1763 173.175 18.5989 163.679 18.0275C162.374 17.9482 159.843 17.8782 158.596 18.0275C158.489 18.0415 158.406 18.0368 158.342 18.1418V35.9339H163.271L163.345 36.1578H147.966V36.0085L147.971 36.0108ZM158.344 0.797516V17.8106C160.531 17.7359 162.827 17.9692 164.994 17.652C171.068 16.7679 171.787 6.9879 168.461 3.02503C165.86 -0.0748278 161.903 0.988779 158.342 0.797516" fill="white"></path><path d="M90.283 35.9364H94.3297V0.797716H90.283L90.3916 0.648438H107.026C112.253 1.13592 116.293 3.31445 117.055 8.94271C118.06 16.3623 113.33 19.8354 106.511 20.1899C104.449 20.2972 101.931 19.9496 99.9562 20.1829C99.85 20.1969 99.7668 20.1922 99.7021 20.2972V35.7498C99.7021 35.7755 99.7991 35.8618 99.776 35.9364H103.823L103.897 36.1603H90.2114L90.2853 35.9364H90.283ZM99.7021 0.907342V19.8517L99.813 19.9636H105.112C105.68 19.9636 107.324 19.0563 107.798 18.6644C112.258 14.9651 112.004 5.74022 107.65 2.02226C106.102 0.699752 105.026 0.802381 103.127 0.800048C102.176 0.800048 100.855 0.685757 99.9562 0.793051C99.85 0.804713 99.7668 0.802381 99.7021 0.907342Z" fill="white"></path><path d="M39.4387 0.797648H35.3921V0.57373H60.5567V10.3071C60.1871 9.89895 60.328 9.09658 60.2541 8.56944C59.6512 4.30569 56.808 1.06122 52.4264 0.797648C49.9619 0.650702 47.3635 0.907274 44.8851 0.797648V17.5868H48.3058C49.1396 17.5868 50.9112 16.2899 51.4702 15.6555C52.2462 14.7762 52.4264 13.7289 52.6458 12.607C52.7036 12.4833 52.8306 12.607 52.8306 12.6443V23.2314C52.6643 23.2617 52.7128 23.2244 52.6666 23.1357C52.461 22.7555 52.468 22.1304 52.3363 21.6873C51.879 20.1525 49.6732 17.883 48.0125 17.883H44.8851V36.011H50.2229C52.468 35.9153 54.6715 35.8384 56.6532 34.6301C59.4665 32.9134 60.6675 29.4357 60.7876 26.2496L61.0001 25.5335V36.1579H35.3944L35.5053 35.934H39.3325L39.4434 35.822V0.797648H39.4387Z" fill="white"></path><path d="M119.935 0.648438H145.1V10.2326L144.548 7.26099C144.204 6.09243 143.723 4.96351 143.026 3.96755C139.852 -0.56678 134.223 1.12659 129.5 0.795383V17.5845C129.99 17.6242 130.507 17.5845 131.011 17.5822C133.491 17.5729 135.983 16.9174 136.891 14.2398C137.081 13.6846 137.004 12.9802 137.372 12.5324V23.1568C137.235 23.1335 137.247 23.0052 137.215 22.9072C137.032 22.3684 137.023 21.8086 136.796 21.2488C136.274 19.9636 134.133 17.8831 132.699 17.8831H129.609L129.498 17.995V35.9364C134.556 35.6682 140.515 37.2612 143.7 32.1858C145.098 29.9606 145.086 28.0317 145.541 25.5732C145.564 25.4519 145.493 25.4449 145.687 25.4613V36.1603H120.007L120.118 35.9364H124.054V0.797716H119.933V0.648438H119.935Z" fill="white"></path><path d="M64.6035 26.5762L64.9061 26.6205C65.6175 29.879 67.3498 33.4127 70.2947 35.1341C75.0504 37.912 82.6726 37.063 83.8482 30.7397C84.5573 26.9168 83.0953 24.8595 80.0071 22.9516C74.5446 19.5788 66.0078 18.2633 65.1232 10.4915C64.2247 2.6194 72.3019 -1.83096 79.0671 0.720763C80.409 1.22691 81.3468 1.99663 82.4508 2.8783L85.4304 0.0886635L85.6521 0.128316V10.0833C85.6521 10.0973 85.4188 10.1719 85.3934 10.0833C84.7028 5.53498 82.0559 1.50214 77.3533 0.59481C74.3067 0.00702699 70.5118 0.800068 69.3362 4.04687C66.941 10.6618 74.9719 12.8869 79.2773 15.0701C84.8322 17.8878 88.4562 21.8879 87.3983 28.5985C86.0864 36.9231 74.8102 39.4118 68.8835 34.481C68.0473 33.7836 68.0889 33.0931 67.1073 34.1148C66.6084 34.6349 66.1649 35.26 65.6752 35.7895C65.405 36.081 64.9985 36.6128 64.6081 36.6058V26.5762H64.6035Z" fill="white"></path><path d="M0 0.57373H14.5698L14.4589 0.797648H9.4191L18.7989 29.8463L29.1373 0.797648H23.3237V0.57373H33.5512L33.3664 0.795315L29.4953 0.839632L16.5955 36.832C16.4014 36.972 15.6739 36.972 15.5907 36.6454L3.31909 0.841965L0.184779 0.797648L0 0.576063L0 0.57373Z" fill="white"></path></g><defs><clipPath id="clip0_2160_1467"><rect width="180" height="37" fill="white"></rect></clipPath></defs></svg>